<svg xmlns="http://www.w3.org/2000/svg" viewBox="0 0 128 128" role="img" aria-labelledby="title desc">
  <title id="title">Arcane Wizard Library</title>
  <desc id="desc">A stylized arcane book mark for Arcane Wizard Library.</desc>
  <rect width="128" height="128" rx="18" fill="#121826"/>
  <path d="M30 26h48c10 0 20 8 20 18v58H48c-10 0-18-8-18-18V26Z" fill="#f4d06f"/>
  <path d="M42 36h34c6 0 12 5 12 12v42H52c-6 0-10-5-10-10V36Z" fill="#6f4fd8"/>
  <path d="M52 51h26M52 64h26M52 77h18" stroke="#f8fafc" stroke-width="5" stroke-linecap="round"/>
  <path d="M92 33l5 10 10 5-10 5-5 10-5-10-10-5 10-5 5-10Z" fill="#5eead4"/>
</svg>
